<svg width="425" height="144" viewBox="0 0 425 144" fill="none" xmlns="http://www.w3.org/2000/svg">
<path d="M0 44L78.5 0H359L425 44V144H0V44Z" fill="black" fill-opacity="0.25"/>
<path d="M422.5 144V45.5L358 2.5H229" stroke="white" stroke-width="5"/>
<path d="M266.763 63V57.496C266.763 57.2827 266.757 57.0053 266.747 56.664C266.747 56.3227 266.736 55.9867 266.715 55.656C266.704 55.3253 266.677 55.064 266.635 54.872L266.667 54.744C266.944 54.6373 267.291 54.536 267.707 54.44C268.123 54.344 268.549 54.264 268.987 54.2C269.424 54.136 269.813 54.104 270.155 54.104C270.624 54.104 271.072 54.1627 271.499 54.28C271.925 54.3867 272.304 54.584 272.635 54.872C272.976 55.1493 273.243 55.5333 273.435 56.024C273.637 56.504 273.739 57.1227 273.739 57.88V63H272.267V58.008C272.267 57.304 272.165 56.7653 271.963 56.392C271.771 56.008 271.499 55.7467 271.147 55.608C270.805 55.4587 270.411 55.384 269.963 55.384C269.621 55.384 269.253 55.4213 268.859 55.496C268.475 55.5707 268.139 55.6613 267.851 55.768L268.107 55.32C268.149 55.48 268.181 55.6827 268.203 55.928C268.224 56.1627 268.235 56.408 268.235 56.664V63H266.763ZM277.579 63V58.008C277.579 57.304 277.488 56.7653 277.307 56.392C277.125 56.008 276.853 55.7467 276.491 55.608C276.128 55.4587 275.68 55.384 275.147 55.384C274.837 55.384 274.517 55.4213 274.187 55.496C273.867 55.5707 273.525 55.6827 273.163 55.832L272.267 54.808C272.8 54.5947 273.328 54.424 273.851 54.296C274.384 54.168 274.88 54.104 275.339 54.104C275.872 54.104 276.363 54.1627 276.811 54.28C277.259 54.3867 277.648 54.584 277.979 54.872C278.32 55.1493 278.581 55.5333 278.763 56.024C278.955 56.504 279.051 57.1227 279.051 57.88V63H277.579ZM287.115 51.48H288.459L282.187 63H280.843L287.115 51.48ZM288.262 61.272H288.39C288.774 61.4427 289.206 61.5813 289.686 61.688C290.176 61.7947 290.662 61.848 291.142 61.848C291.291 61.848 291.488 61.8427 291.734 61.832C291.99 61.8107 292.246 61.7627 292.502 61.688C292.768 61.6133 292.992 61.4853 293.174 61.304C293.355 61.112 293.446 60.8453 293.446 60.504C293.446 60.12 293.291 59.848 292.982 59.688C292.672 59.528 292.246 59.4053 291.702 59.32L290.934 59.192C290.027 59.0427 289.355 58.7867 288.918 58.424C288.48 58.0507 288.262 57.528 288.262 56.856C288.262 56.3867 288.384 55.9493 288.63 55.544C288.886 55.128 289.291 54.7973 289.846 54.552C290.411 54.296 291.163 54.168 292.102 54.168C292.518 54.168 292.918 54.2053 293.302 54.28C293.696 54.344 294.022 54.424 294.278 54.52V55.832H294.15C293.798 55.704 293.462 55.608 293.142 55.544C292.822 55.48 292.454 55.448 292.038 55.448C291.302 55.448 290.72 55.5547 290.294 55.768C289.878 55.9707 289.67 56.3173 289.67 56.808C289.67 57.1813 289.819 57.448 290.118 57.608C290.427 57.768 290.854 57.8907 291.398 57.976L292.166 58.104C292.656 58.1787 293.104 58.312 293.51 58.504C293.915 58.696 294.24 58.9573 294.486 59.288C294.731 59.608 294.854 60.0133 294.854 60.504C294.854 61.368 294.544 62.024 293.926 62.472C293.307 62.9093 292.358 63.128 291.078 63.128C290.534 63.128 290.022 63.0853 289.542 63C289.072 62.9147 288.646 62.808 288.262 62.68V61.272ZM301.059 63V57.496C301.059 57.2827 301.054 57.0053 301.043 56.664C301.043 56.3227 301.033 55.9867 301.011 55.656C301.001 55.3253 300.974 55.064 300.931 54.872L300.963 54.744C301.241 54.6373 301.582 54.5467 301.987 54.472C302.403 54.3973 302.814 54.3387 303.219 54.296C303.635 54.2533 303.982 54.232 304.259 54.232C304.515 54.232 304.723 54.2373 304.883 54.248C305.043 54.2587 305.177 54.2747 305.283 54.296V55.576H305.155C305.017 55.5547 304.851 55.5387 304.659 55.528C304.467 55.5173 304.291 55.512 304.131 55.512C303.801 55.512 303.454 55.5387 303.091 55.592C302.729 55.6453 302.414 55.6987 302.147 55.752L302.435 55.352C302.499 55.704 302.531 56.1413 302.531 56.664V63H301.059ZM311.171 63.128C310.36 63.128 309.651 63.032 309.043 62.84C308.446 62.6373 307.944 62.344 307.539 61.96C307.144 61.576 306.851 61.1067 306.659 60.552C306.467 59.9867 306.371 59.3413 306.371 58.616C306.371 57.7093 306.536 56.92 306.867 56.248C307.208 55.5653 307.678 55.0373 308.275 54.664C308.883 54.2907 309.592 54.104 310.403 54.104C311.342 54.104 312.099 54.296 312.675 54.68C313.251 55.064 313.662 55.6027 313.907 56.296C314.163 56.9893 314.275 57.7947 314.243 58.712L314.227 59.16H307.395V57.944H312.707V57.816C312.707 57.016 312.515 56.4133 312.131 56.008C311.747 55.592 311.171 55.384 310.403 55.384C309.955 55.384 309.539 55.48 309.155 55.672C308.771 55.864 308.462 56.1893 308.227 56.648C307.992 57.1067 307.875 57.7307 307.875 58.52V58.616C307.875 59.4373 308.019 60.0827 308.307 60.552C308.595 61.0213 308.99 61.3573 309.491 61.56C310.003 61.752 310.584 61.848 311.235 61.848C311.779 61.848 312.243 61.7947 312.627 61.688C313.011 61.5813 313.315 61.464 313.539 61.336H313.667V62.648C313.411 62.776 313.075 62.888 312.659 62.984C312.243 63.08 311.747 63.128 311.171 63.128ZM316.622 63V53.592C316.622 53.3787 316.617 53.1013 316.606 52.76C316.606 52.4187 316.595 52.0827 316.574 51.752C316.563 51.4213 316.537 51.16 316.494 50.968L316.526 50.84H318.094V63H316.622ZM324.146 63.192C322.898 63.192 321.96 62.968 321.33 62.52C320.712 62.0613 320.402 61.368 320.402 60.44C320.402 59.8213 320.552 59.3093 320.85 58.904C321.16 58.4987 321.592 58.1947 322.146 57.992C322.712 57.7893 323.378 57.688 324.146 57.688C324.744 57.688 325.24 57.7413 325.634 57.848C326.04 57.944 326.386 58.04 326.674 58.136V59.288C326.386 59.192 326.029 59.1067 325.602 59.032C325.176 58.9467 324.776 58.904 324.402 58.904C323.538 58.904 322.893 59.016 322.466 59.24C322.05 59.464 321.842 59.864 321.842 60.44C321.842 60.984 322.045 61.3787 322.45 61.624C322.856 61.8587 323.442 61.976 324.21 61.976C324.637 61.976 325.048 61.944 325.442 61.88C325.837 61.8053 326.205 61.7093 326.546 61.592L326.258 62.024C326.237 61.9387 326.216 61.8427 326.194 61.736C326.184 61.6293 326.173 61.5173 326.162 61.4C326.152 61.2827 326.141 61.16 326.13 61.032C326.13 60.904 326.13 60.7707 326.13 60.632V57.752C326.13 57.0693 326.034 56.5627 325.842 56.232C325.661 55.8907 325.384 55.6667 325.01 55.56C324.648 55.4427 324.189 55.384 323.634 55.384C323.218 55.384 322.792 55.4373 322.354 55.544C321.928 55.6507 321.586 55.768 321.33 55.896H321.202V54.584C321.586 54.424 322.013 54.3067 322.482 54.232C322.962 54.1467 323.41 54.104 323.826 54.104C324.36 54.104 324.85 54.152 325.298 54.248C325.757 54.344 326.157 54.52 326.498 54.776C326.85 55.0213 327.122 55.3787 327.314 55.848C327.506 56.3173 327.602 56.9307 327.602 57.688V59.8C327.602 60.0133 327.602 60.2907 327.602 60.632C327.613 60.9733 327.624 61.3093 327.634 61.64C327.656 61.9707 327.688 62.232 327.73 62.424L327.698 62.552C327.346 62.68 326.957 62.792 326.53 62.888C326.104 62.984 325.677 63.0587 325.25 63.112C324.834 63.1653 324.466 63.192 324.146 63.192ZM333.494 63.128C332.747 63.128 332.15 63.0107 331.702 62.776C331.254 62.5307 330.928 62.1947 330.726 61.768C330.523 61.3307 330.422 60.824 330.422 60.248V51.928H331.894V60.12C331.894 60.728 332.027 61.1707 332.294 61.448C332.56 61.7147 332.982 61.848 333.558 61.848C333.782 61.848 334 61.8267 334.214 61.784C334.427 61.7307 334.614 61.6667 334.774 61.592H334.902V62.84C334.742 62.9147 334.539 62.9787 334.294 63.032C334.048 63.096 333.782 63.128 333.494 63.128ZM329.078 55.576V54.296H334.39V55.576H329.078ZM337.499 52.76C337.232 52.76 337.003 52.6747 336.811 52.504C336.629 52.3227 336.539 52.088 336.539 51.8C336.539 51.512 336.629 51.2827 336.811 51.112C337.003 50.9307 337.232 50.84 337.499 50.84C337.776 50.84 338.005 50.9307 338.187 51.112C338.368 51.2827 338.459 51.512 338.459 51.8C338.459 52.088 338.368 52.3227 338.187 52.504C338.005 52.6747 337.776 52.76 337.499 52.76ZM336.763 63V57.048C336.763 56.8347 336.757 56.5573 336.747 56.216C336.747 55.8747 336.736 55.5387 336.715 55.208C336.704 54.8773 336.677 54.616 336.635 54.424L336.667 54.296H338.235V63H336.763ZM343.037 63L339.965 54.488V54.296H341.501L344.253 62.264H343.853L346.685 54.296H348.157V54.488L344.957 63H343.037ZM353.859 63.128C353.048 63.128 352.339 63.032 351.731 62.84C351.133 62.6373 350.632 62.344 350.227 61.96C349.832 61.576 349.539 61.1067 349.347 60.552C349.155 59.9867 349.059 59.3413 349.059 58.616C349.059 57.7093 349.224 56.92 349.555 56.248C349.896 55.5653 350.365 55.0373 350.963 54.664C351.571 54.2907 352.28 54.104 353.091 54.104C354.029 54.104 354.787 54.296 355.363 54.68C355.939 55.064 356.349 55.6027 356.595 56.296C356.851 56.9893 356.963 57.7947 356.931 58.712L356.915 59.16H350.083V57.944H355.395V57.816C355.395 57.016 355.203 56.4133 354.819 56.008C354.435 55.592 353.859 55.384 353.091 55.384C352.643 55.384 352.227 55.48 351.843 55.672C351.459 55.864 351.149 56.1893 350.915 56.648C350.68 57.1067 350.563 57.7307 350.563 58.52V58.616C350.563 59.4373 350.707 60.0827 350.995 60.552C351.283 61.0213 351.677 61.3573 352.179 61.56C352.691 61.752 353.272 61.848 353.923 61.848C354.467 61.848 354.931 61.7947 355.315 61.688C355.699 61.5813 356.003 61.464 356.227 61.336H356.355V62.648C356.099 62.776 355.763 62.888 355.347 62.984C354.931 63.08 354.435 63.128 353.859 63.128Z" fill="#A0A0A0"/>
<path d="M273.384 121V116.872C273.384 116.712 273.38 116.504 273.372 116.248C273.372 115.992 273.364 115.74 273.348 115.492C273.34 115.244 273.32 115.048 273.288 114.904L273.312 114.808C273.52 114.728 273.78 114.652 274.092 114.58C274.404 114.508 274.724 114.448 275.052 114.4C275.38 114.352 275.672 114.328 275.928 114.328C276.28 114.328 276.616 114.372 276.936 114.46C277.256 114.54 277.54 114.688 277.788 114.904C278.044 115.112 278.244 115.4 278.388 115.768C278.54 116.128 278.616 116.592 278.616 117.16V121H277.512V117.256C277.512 116.728 277.436 116.324 277.284 116.044C277.14 115.756 276.936 115.56 276.672 115.456C276.416 115.344 276.12 115.288 275.784 115.288C275.528 115.288 275.252 115.316 274.956 115.372C274.668 115.428 274.416 115.496 274.2 115.576L274.392 115.24C274.424 115.36 274.448 115.512 274.464 115.696C274.48 115.872 274.488 116.056 274.488 116.248V121H273.384ZM281.496 121V117.256C281.496 116.728 281.428 116.324 281.292 116.044C281.156 115.756 280.952 115.56 280.68 115.456C280.408 115.344 280.072 115.288 279.672 115.288C279.44 115.288 279.2 115.316 278.952 115.372C278.712 115.428 278.456 115.512 278.184 115.624L277.512 114.856C277.912 114.696 278.308 114.568 278.7 114.472C279.1 114.376 279.472 114.328 279.816 114.328C280.216 114.328 280.584 114.372 280.92 114.46C281.256 114.54 281.548 114.688 281.796 114.904C282.052 115.112 282.248 115.4 282.384 115.768C282.528 116.128 282.6 116.592 282.6 117.16V121H281.496ZM288.649 112.36H289.657L284.953 121H283.945L288.649 112.36ZM289.509 119.704H289.605C289.893 119.832 290.217 119.936 290.577 120.016C290.945 120.096 291.309 120.136 291.669 120.136C291.781 120.136 291.929 120.132 292.113 120.124C292.305 120.108 292.497 120.072 292.689 120.016C292.889 119.96 293.057 119.864 293.193 119.728C293.329 119.584 293.397 119.384 293.397 119.128C293.397 118.84 293.281 118.636 293.049 118.516C292.817 118.396 292.497 118.304 292.089 118.24L291.513 118.144C290.833 118.032 290.329 117.84 290.001 117.568C289.673 117.288 289.509 116.896 289.509 116.392C289.509 116.04 289.601 115.712 289.785 115.408C289.977 115.096 290.281 114.848 290.697 114.664C291.121 114.472 291.685 114.376 292.389 114.376C292.701 114.376 293.001 114.404 293.289 114.46C293.585 114.508 293.829 114.568 294.021 114.64V115.624H293.925C293.661 115.528 293.409 115.456 293.169 115.408C292.929 115.36 292.653 115.336 292.341 115.336C291.789 115.336 291.353 115.416 291.033 115.576C290.721 115.728 290.565 115.988 290.565 116.356C290.565 116.636 290.677 116.836 290.901 116.956C291.133 117.076 291.453 117.168 291.861 117.232L292.437 117.328C292.805 117.384 293.141 117.484 293.445 117.628C293.749 117.772 293.993 117.968 294.177 118.216C294.361 118.456 294.453 118.76 294.453 119.128C294.453 119.776 294.221 120.268 293.757 120.604C293.293 120.932 292.581 121.096 291.621 121.096C291.213 121.096 290.829 121.064 290.469 121C290.117 120.936 289.797 120.856 289.509 120.76V119.704ZM304.457 121.144C303.521 121.144 302.817 120.976 302.345 120.64C301.881 120.296 301.649 119.776 301.649 119.08C301.649 118.616 301.761 118.232 301.985 117.928C302.217 117.624 302.541 117.396 302.957 117.244C303.381 117.092 303.881 117.016 304.457 117.016C304.905 117.016 305.277 117.056 305.573 117.136C305.877 117.208 306.137 117.28 306.353 117.352V118.216C306.137 118.144 305.869 118.08 305.549 118.024C305.229 117.96 304.929 117.928 304.649 117.928C304.001 117.928 303.517 118.012 303.197 118.18C302.885 118.348 302.729 118.648 302.729 119.08C302.729 119.488 302.881 119.784 303.185 119.968C303.489 120.144 303.929 120.232 304.505 120.232C304.825 120.232 305.133 120.208 305.429 120.16C305.725 120.104 306.001 120.032 306.257 119.944L306.041 120.268C306.025 120.204 306.009 120.132 305.993 120.052C305.985 119.972 305.977 119.888 305.969 119.8C305.961 119.712 305.953 119.62 305.945 119.524C305.945 119.428 305.945 119.328 305.945 119.224V117.064C305.945 116.552 305.873 116.172 305.729 115.924C305.593 115.668 305.385 115.5 305.105 115.42C304.833 115.332 304.489 115.288 304.073 115.288C303.761 115.288 303.441 115.328 303.113 115.408C302.793 115.488 302.537 115.576 302.345 115.672H302.249V114.688C302.537 114.568 302.857 114.48 303.209 114.424C303.569 114.36 303.905 114.328 304.217 114.328C304.617 114.328 304.985 114.364 305.321 114.436C305.665 114.508 305.965 114.64 306.221 114.832C306.485 115.016 306.689 115.284 306.833 115.636C306.977 115.988 307.049 116.448 307.049 117.016V118.6C307.049 118.76 307.049 118.968 307.049 119.224C307.057 119.48 307.065 119.732 307.073 119.98C307.089 120.228 307.113 120.424 307.145 120.568L307.121 120.664C306.857 120.76 306.565 120.844 306.245 120.916C305.925 120.988 305.605 121.044 305.285 121.084C304.973 121.124 304.697 121.144 304.457 121.144ZM311.512 121.144C311.104 121.144 310.692 121.1 310.276 121.012C309.86 120.932 309.496 120.832 309.184 120.712L309.16 120.616C309.192 120.472 309.212 120.276 309.22 120.028C309.236 119.78 309.244 119.528 309.244 119.272C309.252 119.016 309.256 118.808 309.256 118.648V113.944C309.256 113.824 309.256 113.676 309.256 113.5C309.256 113.324 309.252 113.14 309.244 112.948C309.236 112.748 309.224 112.564 309.208 112.396C309.2 112.22 309.184 112.08 309.16 111.976L309.184 111.88H310.36V119.224C310.36 119.464 310.348 119.672 310.324 119.848C310.308 120.016 310.288 120.16 310.264 120.28L310.072 119.944C310.264 120.008 310.484 120.064 310.732 120.112C310.98 120.16 311.24 120.184 311.512 120.184C312.28 120.184 312.848 119.972 313.216 119.548C313.584 119.124 313.768 118.504 313.768 117.688C313.768 116.944 313.576 116.36 313.192 115.936C312.816 115.504 312.256 115.288 311.512 115.288C311.304 115.288 311.124 115.3 310.972 115.324C310.82 115.34 310.668 115.368 310.516 115.408C310.364 115.448 310.184 115.504 309.976 115.576V114.664C310.256 114.544 310.536 114.46 310.816 114.412C311.104 114.356 311.368 114.328 311.608 114.328C312.296 114.328 312.884 114.464 313.372 114.736C313.868 115.008 314.244 115.396 314.5 115.9C314.764 116.404 314.896 117 314.896 117.688C314.896 118.408 314.76 119.028 314.488 119.548C314.216 120.06 313.828 120.456 313.324 120.736C312.82 121.008 312.216 121.144 311.512 121.144ZM316.145 119.704H316.241C316.529 119.832 316.853 119.936 317.213 120.016C317.581 120.096 317.945 120.136 318.305 120.136C318.417 120.136 318.565 120.132 318.749 120.124C318.941 120.108 319.133 120.072 319.325 120.016C319.525 119.96 319.693 119.864 319.829 119.728C319.965 119.584 320.033 119.384 320.033 119.128C320.033 118.84 319.917 118.636 319.685 118.516C319.453 118.396 319.133 118.304 318.725 118.24L318.149 118.144C317.469 118.032 316.965 117.84 316.637 117.568C316.309 117.288 316.145 116.896 316.145 116.392C316.145 116.04 316.237 115.712 316.421 115.408C316.613 115.096 316.917 114.848 317.333 114.664C317.757 114.472 318.321 114.376 319.025 114.376C319.337 114.376 319.637 114.404 319.925 114.46C320.221 114.508 320.465 114.568 320.657 114.64V115.624H320.561C320.297 115.528 320.045 115.456 319.805 115.408C319.565 115.36 319.289 115.336 318.977 115.336C318.425 115.336 317.989 115.416 317.669 115.576C317.357 115.728 317.201 115.988 317.201 116.356C317.201 116.636 317.313 116.836 317.537 116.956C317.769 117.076 318.089 117.168 318.497 117.232L319.073 117.328C319.441 117.384 319.777 117.484 320.081 117.628C320.385 117.772 320.629 117.968 320.813 118.216C320.997 118.456 321.089 118.76 321.089 119.128C321.089 119.776 320.857 120.268 320.393 120.604C319.929 120.932 319.217 121.096 318.257 121.096C317.849 121.096 317.465 121.064 317.105 121C316.753 120.936 316.433 120.856 316.145 120.76V119.704ZM322.145 117.712C322.145 117 322.269 116.392 322.517 115.888C322.773 115.384 323.125 115 323.573 114.736C324.029 114.464 324.553 114.328 325.145 114.328C325.737 114.328 326.257 114.464 326.705 114.736C327.161 115 327.513 115.384 327.761 115.888C328.017 116.392 328.145 117 328.145 117.712C328.145 118.424 328.017 119.032 327.761 119.536C327.513 120.04 327.161 120.428 326.705 120.7C326.257 120.964 325.737 121.096 325.145 121.096C324.537 121.096 324.009 120.964 323.561 120.7C323.113 120.428 322.765 120.04 322.517 119.536C322.269 119.032 322.145 118.424 322.145 117.712ZM323.273 117.712C323.273 118.512 323.433 119.116 323.753 119.524C324.081 119.932 324.545 120.136 325.145 120.136C325.745 120.136 326.205 119.932 326.525 119.524C326.853 119.116 327.017 118.512 327.017 117.712C327.017 116.904 326.853 116.3 326.525 115.9C326.205 115.492 325.745 115.288 325.145 115.288C324.545 115.288 324.081 115.492 323.753 115.9C323.433 116.3 323.273 116.904 323.273 117.712ZM329.916 121V113.944C329.916 113.784 329.912 113.576 329.904 113.32C329.904 113.064 329.896 112.812 329.88 112.564C329.872 112.316 329.852 112.12 329.82 111.976L329.844 111.88H331.02V121H329.916ZM336.158 121.144C335.742 121.144 335.35 121.1 334.982 121.012C334.622 120.932 334.306 120.788 334.034 120.58C333.77 120.364 333.562 120.072 333.41 119.704C333.258 119.336 333.182 118.872 333.182 118.312V116.536C333.182 116.376 333.178 116.168 333.17 115.912C333.17 115.656 333.162 115.404 333.146 115.156C333.138 114.908 333.118 114.712 333.086 114.568L333.11 114.472H334.286V118.216C334.286 118.744 334.362 119.152 334.514 119.44C334.674 119.72 334.902 119.916 335.198 120.028C335.502 120.132 335.866 120.184 336.29 120.184C336.546 120.184 336.806 120.164 337.07 120.124C337.342 120.076 337.578 120.024 337.778 119.968L337.574 120.256C337.542 120.144 337.522 120.004 337.514 119.836C337.506 119.668 337.502 119.496 337.502 119.32V116.536C337.502 116.376 337.498 116.168 337.49 115.912C337.49 115.656 337.482 115.404 337.466 115.156C337.458 114.908 337.438 114.712 337.406 114.568L337.43 114.472H338.606V118.648C338.606 118.808 338.606 119.016 338.606 119.272C338.614 119.528 338.622 119.78 338.63 120.028C338.646 120.276 338.67 120.472 338.702 120.616L338.678 120.712C338.47 120.792 338.206 120.864 337.886 120.928C337.574 120.992 337.258 121.044 336.938 121.084C336.626 121.124 336.366 121.144 336.158 121.144ZM343.308 121.096C342.748 121.096 342.3 121.008 341.964 120.832C341.628 120.648 341.384 120.396 341.232 120.076C341.08 119.748 341.004 119.368 341.004 118.936V112.696H342.108V118.84C342.108 119.296 342.208 119.628 342.408 119.836C342.608 120.036 342.924 120.136 343.356 120.136C343.524 120.136 343.688 120.12 343.848 120.088C344.008 120.048 344.148 120 344.268 119.944H344.364V120.88C344.244 120.936 344.092 120.984 343.908 121.024C343.724 121.072 343.524 121.096 343.308 121.096ZM339.996 115.432V114.472H343.98V115.432H339.996ZM348.831 121.096C348.223 121.096 347.691 121.024 347.235 120.88C346.787 120.728 346.411 120.508 346.107 120.22C345.811 119.932 345.591 119.58 345.447 119.164C345.303 118.74 345.231 118.256 345.231 117.712C345.231 117.032 345.355 116.44 345.603 115.936C345.859 115.424 346.211 115.028 346.659 114.748C347.115 114.468 347.647 114.328 348.255 114.328C348.959 114.328 349.527 114.472 349.959 114.76C350.391 115.048 350.699 115.452 350.883 115.972C351.075 116.492 351.159 117.096 351.135 117.784L351.123 118.12H345.999V117.208H349.983V117.112C349.983 116.512 349.839 116.06 349.551 115.756C349.263 115.444 348.831 115.288 348.255 115.288C347.919 115.288 347.607 115.36 347.319 115.504C347.031 115.648 346.799 115.892 346.623 116.236C346.447 116.58 346.359 117.048 346.359 117.64V117.712C346.359 118.328 346.467 118.812 346.683 119.164C346.899 119.516 347.195 119.768 347.571 119.92C347.955 120.064 348.391 120.136 348.879 120.136C349.287 120.136 349.635 120.096 349.923 120.016C350.211 119.936 350.439 119.848 350.607 119.752H350.703V120.736C350.511 120.832 350.259 120.916 349.947 120.988C349.635 121.06 349.263 121.096 348.831 121.096Z" fill="#A0A0A0"/>
<path d="M358 74H233" stroke="white" stroke-opacity="0.5"/>
<path d="M425 143.5H233" stroke="white"/>
<path d="M0.5 144V44.2942L78.5 0.5H229.5" stroke="white"/>
</svg>
