<svg width="427" height="145" viewBox="0 0 427 145" fill="none" xmlns="http://www.w3.org/2000/svg">
<path d="M425 45L346.5 1H66L0 45V145H425V45Z" fill="black" fill-opacity="0.25"/>
<path d="M2 145V45.4558L66.6667 2H196" stroke="white" stroke-width="4"/>
<path d="M0.999985 143L426 143" stroke="white" stroke-width="4"/>
<path d="M425 145V45.6417L347 2H196" stroke="white" stroke-width="4"/>
<path d="M189.387 113.95C195.815 109.33 200.617 102.793 203.103 95.2765C205.589 87.7601 205.633 79.6497 203.227 72.107C200.822 64.5643 196.091 57.9764 189.713 53.2868C183.334 48.5973 175.635 46.0468 167.719 46.0006C159.802 45.9545 152.074 48.4151 145.641 53.03C139.208 57.6448 134.401 64.1772 131.908 71.6913C129.415 79.2054 129.364 87.3158 131.762 94.8607C134.161 102.406 138.885 108.998 145.26 113.693L150.213 106.969C145.258 103.319 141.586 98.195 139.722 92.3305C137.857 86.466 137.897 80.1619 139.835 74.3213C141.773 68.4807 145.509 63.4032 150.509 59.8161C155.509 56.2291 161.516 54.3165 167.67 54.3524C173.823 54.3882 179.808 56.3707 184.766 60.0158C189.724 63.6609 193.401 68.7816 195.27 74.6444C197.14 80.5072 197.106 86.8113 195.174 92.6537C193.241 98.496 189.509 103.577 184.512 107.168L189.387 113.95Z" fill="#3F3F3F"/>
<path d="M168.901 80.6185L170.631 63.1428L156.785 86.4438L167.17 88.1081L165.006 106L179.285 81.4507L168.901 80.6185Z" fill="#9CFF8A"/>
<path d="M371.387 113.95C377.815 109.33 382.617 102.793 385.103 95.2765C387.589 87.7601 387.633 79.6497 385.227 72.107C382.822 64.5643 378.091 57.9764 371.713 53.2868C365.334 48.5973 357.635 46.0468 349.719 46.0006C341.802 45.9545 334.074 48.4151 327.641 53.03C321.208 57.6448 316.401 64.1772 313.908 71.6913C311.415 79.2054 311.364 87.3158 313.762 94.8607C316.161 102.406 320.885 108.998 327.26 113.693L332.213 106.969C327.258 103.319 323.586 98.195 321.722 92.3305C319.857 86.466 319.897 80.1619 321.835 74.3213C323.773 68.4807 327.509 63.4032 332.509 59.8161C337.509 56.2291 343.516 54.3165 349.67 54.3524C355.823 54.3882 361.808 56.3707 366.766 60.0158C371.724 63.6609 375.401 68.7816 377.27 74.6444C379.14 80.5072 379.106 86.8113 377.174 92.6537C375.241 98.496 371.509 103.577 366.512 107.168L371.387 113.95Z" fill="#3F3F3F"/>
<path d="M349.729 98.5C368.387 92.5205 370.43 59.1252 349.729 74.779C331.624 59.6472 330.092 91.9987 349.729 98.5Z" fill="#DF0000"/>
<path d="M280.387 113.95C286.815 109.33 291.617 102.793 294.103 95.2765C296.589 87.7601 296.633 79.6497 294.227 72.107C291.822 64.5643 287.091 57.9764 280.713 53.2868C274.334 48.5973 266.635 46.0468 258.719 46.0006C250.802 45.9545 243.074 48.4151 236.641 53.03C230.208 57.6448 225.401 64.1772 222.908 71.6913C220.415 79.2054 220.364 87.3158 222.762 94.8607C225.161 102.406 229.885 108.998 236.26 113.693L241.213 106.969C236.258 103.319 232.586 98.195 230.722 92.3305C228.857 86.466 228.897 80.1619 230.835 74.3213C232.773 68.4807 236.509 63.4032 241.509 59.8161C246.509 56.2291 252.516 54.3165 258.67 54.3524C264.823 54.3882 270.808 56.3707 275.766 60.0158C280.724 63.6609 284.401 68.7816 286.27 74.6444C288.14 80.5072 288.106 86.8113 286.174 92.6537C284.241 98.496 280.509 103.577 275.512 107.168L280.387 113.95Z" fill="#3F3F3F"/>
<path fill-rule="evenodd" clip-rule="evenodd" d="M269.256 67.54C268.865 67.1494 268.232 67.1494 267.842 67.54L264.992 70.3901C264.577 70.245 264.132 70.1662 263.669 70.1662H262.502C260.293 70.1662 258.502 71.957 258.502 74.1662V75.1662H251.834C249.073 75.1662 246.834 77.4048 246.834 80.1662V94.3329C246.834 97.0943 249.073 99.3329 251.834 99.3329H262.667C265.429 99.3329 267.667 97.0943 267.667 94.3329V87.1027C267.668 87.0684 267.669 87.034 267.669 86.9995V74.1662C267.669 73.7401 267.602 73.3296 267.479 72.9445L270.362 70.0607C270.753 69.6702 270.753 69.037 270.362 68.6465L269.256 67.54ZM249.334 80.1597C249.334 78.5029 250.677 77.1597 252.334 77.1597H253.001C254.658 77.1597 256.001 78.5029 256.001 80.1597V83.3264C256.001 84.9833 254.658 86.3264 253.001 86.3264H252.334C250.677 86.3264 249.334 84.9833 249.334 83.3264V80.1597Z" fill="#FFE100"/>
<path d="M98.3868 114.95C104.815 110.33 109.617 103.793 112.103 96.2765C114.589 88.7601 114.633 80.6497 112.227 73.107C109.822 65.5643 105.091 58.9764 98.7129 54.2868C92.3344 49.5973 84.6353 47.0468 76.7186 47.0006C68.8018 46.9545 61.0735 49.4151 54.6408 54.03C48.208 58.6448 43.4008 65.1772 40.9078 72.6913C38.4148 80.2054 38.3638 88.3158 40.7623 95.8607C43.1607 103.406 47.8855 109.998 54.2597 114.693L59.213 107.969C54.2584 104.319 50.5859 99.195 48.7217 93.3305C46.8574 87.466 46.897 81.1619 48.8348 75.3213C50.7726 69.4807 54.5091 64.4032 59.5092 60.8161C64.5093 57.2291 70.5163 55.3165 76.6699 55.3524C82.8235 55.3882 88.8078 57.3707 93.7657 61.0158C98.7237 64.6609 102.401 69.7816 104.27 75.6444C106.14 81.5072 106.106 87.8113 104.174 93.6537C102.241 99.496 98.5091 104.577 93.5122 108.168L98.3868 114.95Z" fill="#3F3F3F"/>
<circle cx="74" cy="86" r="10" fill="#8AFFF9"/>
<circle cx="77.5" cy="83.5" r="2.5" fill="white"/>
<circle cx="86" cy="76" r="3" fill="#8AFFF9"/>
</svg>
